<svg width="120" height="52" viewBox="0 0 120 52" fill="none" xmlns="http://www.w3.org/2000/svg">
<g clip-path="url(#clip0_822_553)">
<path d="M19.6825 0C21.0582 0 22.4339 0 23.8095 0C24.3175 0.203292 24.8677 0.139095 25.3968 0.203292C27.5344 0.470782 29.619 0.962963 31.5661 1.92593C33.2804 2.78189 34.0741 4.26914 33.7566 6.05597C33.6825 6.50535 33.4815 6.91193 33.3122 7.40412C33.9577 7.28642 34.5079 7.05103 35.1005 7.00823C36.1164 6.94403 36.8254 7.46831 37.0582 8.47407C37.1852 9.01975 37.0899 9.54403 36.9947 10.0683C36.8889 10.6996 36.8677 10.6889 37.5238 10.6889C43.037 10.6889 48.5608 10.6889 54.0741 10.6889C54.455 10.6889 54.8254 10.7103 55.0794 11.0313C55.2381 11.2239 55.3651 11.1597 55.5344 11.0848C57.1111 10.3251 58.7831 10.0469 60.5185 10.1646C62.6243 10.3144 64.4656 11.0741 65.8836 12.679C66.2434 13.0856 66.4127 13.1177 66.8148 12.7325C69.6402 10.1004 73.9683 9.36214 77.2381 10.9457C77.5661 11.1062 77.8307 11.2667 78.127 10.8922C78.2645 10.7103 78.5291 10.6889 78.7619 10.6889C85.5132 10.6889 92.2645 10.6675 99.0159 10.7103C101.005 10.721 102.762 11.5021 104.159 12.9679C104.381 13.2033 104.487 13.2354 104.73 13C106.889 10.9243 109.471 10.0148 112.434 10.1646C115.81 10.3251 118.603 12.5078 119.577 15.7712C119.735 16.3169 119.862 16.884 120 17.4403C120 18.3712 120 19.2914 120 20.2222C119.693 20.9819 119.672 21.7951 119.534 22.5975C118.656 27.7226 117.788 32.8477 116.931 37.9621C116.635 39.7169 116.349 41.4609 115.598 43.1086C112.889 49.0576 106.603 50.6412 102.349 48.6082C102.243 48.5547 102.127 48.4905 102.011 48.5975C101.661 48.9185 101.238 48.8864 100.815 48.8864C92.3704 48.8864 83.9259 48.8864 75.4709 48.8864C75.2804 48.8864 75.0794 48.8971 74.8889 48.8757C74.3069 48.8008 73.9577 48.3942 73.9365 47.7951C73.9365 47.6881 74.0212 47.5597 73.8836 47.4634C72.3492 48.5868 70.6349 49.2502 68.7513 49.3893C66.0106 49.5926 63.5767 48.9078 61.6931 46.7679C61.4286 46.4576 61.3122 46.4683 61.0265 46.7358C58.5185 48.972 55.619 49.828 52.3175 49.2395C51.2169 49.0469 50.2116 48.5868 49.2593 47.9663C49.0476 48.7045 48.5397 48.8971 47.873 48.8971C39.7778 48.8864 31.6825 48.8971 23.5873 48.8971C23.4815 48.8971 23.3757 48.8971 23.2698 48.8971C22.582 48.8436 22.1693 48.3835 22.2222 47.6988C22.2434 47.3457 22.3175 46.9926 22.381 46.6395C22.8042 44.1144 23.2487 41.5893 23.6614 39.0642C23.7143 38.7539 23.8836 38.2831 23.5344 38.1547C23.2593 38.0584 23.0582 38.5078 22.8995 38.7753C22.1693 40.0165 21.4497 41.2576 20.7619 42.5202C19.3545 45.0988 17.9894 47.7095 16.5503 50.2881C15.9259 51.4008 15.0053 52.214 13.6402 52C12.2222 51.7753 11.6296 50.6733 11.3333 49.3893C11.0688 48.2337 11.0476 47.0568 11.0159 45.8798C10.8677 40.7119 11.3228 35.5868 11.9259 30.4724C11.9683 30.1086 11.8836 29.9802 11.545 29.8839C10.4233 29.5737 9.36508 29.1029 8.34921 28.5144C6.74074 27.5835 5.26984 26.4815 4.16931 24.9621C2.7619 23.0362 3.43915 20.7679 5.62963 20.2436C5.86243 20.1901 5.92593 20.0724 5.94709 19.8477C5.96825 19.5695 5.77778 19.5802 5.61905 19.5267C5.50265 19.484 5.37566 19.4626 5.25926 19.4305C3.38624 18.8848 2.20106 17.5473 1.28042 15.8996C0.804233 15.0008 0.402116 14.0807 0 13.1605C0 12.7646 0 12.3794 0 11.9835C0.539683 10.7745 1.19577 10.4 2.55026 10.5605C3.82011 10.721 4.97355 11.2774 6.19048 11.6305C6.78307 11.8016 6.78307 11.8123 6.85714 11.1811C7.03704 9.66173 7.24868 8.14239 7.52381 6.64444C7.84127 4.90041 8.6455 3.48807 10.2857 2.7177C12.7302 1.57284 15.2698 0.706173 17.9577 0.299588C18.5291 0.213992 19.1323 0.25679 19.6825 0ZM25.1323 15.0222C25.5344 15.1185 25.8836 15.3218 26.2434 15.5037C26.7619 15.7605 27.2804 16.0387 27.8201 16.242C29.4921 16.8733 30.8571 16.4988 32.0635 15.1613C32.254 14.9473 32.328 14.7761 32.1693 14.5086C31.9788 14.1663 31.8836 13.7811 31.8519 13.3852C31.7884 12.7218 32.1164 12.4222 32.7725 12.5292C32.8889 12.5506 33.0159 12.572 33.1323 12.6255C33.3862 12.7432 33.4921 12.6683 33.5873 12.4008C33.8624 11.6305 34.1693 10.8708 34.455 10.1111C34.4868 10.0255 34.5079 9.93992 34.381 9.86502C34.2434 9.92922 34.0741 10.0041 33.9259 10.0897C32.4127 11.0099 30.836 11.8016 29.2593 12.5934C28.4868 12.9786 27.6931 13.3317 26.8254 13.4601C26.3492 13.5243 25.8519 13.5885 25.3862 13.2354C25.6085 13.0856 25.8413 13.0749 26.0635 13.0428C26.7831 12.9358 27.3333 12.7111 27.6931 11.93C28.5503 10.0576 29.5238 8.23868 30.455 6.39835C30.9947 5.3284 30.8889 5.02881 29.8095 4.56872C29.6825 4.51523 29.545 4.46173 29.418 4.40823C27.1958 3.57366 24.8677 3.30617 22.5185 3.25268C18.9312 3.16708 15.4921 3.92675 12.2116 5.41399C11.1429 5.89547 10.5608 6.68724 10.3704 7.8214C10.1799 8.99835 9.97884 10.1753 9.79894 11.3523C9.30159 14.6477 8.89947 17.9432 8.66667 21.2708C8.62434 21.9021 8.63492 21.9021 9.24868 21.7844C10.9841 21.4527 12.6667 20.9605 14.3492 20.4148C14.6772 20.3078 14.8254 20.1259 14.9206 19.8049C15.1746 18.9169 15.4709 18.0395 15.746 17.1621C16 16.349 16.0423 16.3276 16.6349 16.9695C17.0688 17.4403 17.5026 17.9111 17.8942 18.414C18.1376 18.7243 18.328 18.7778 18.6667 18.5638C20.0952 17.7078 21.4392 16.7342 22.6561 15.5786C22.9418 15.3111 23.2275 15.0436 23.5556 14.7333C23.545 15.0115 23.4286 15.1506 23.3333 15.2897C22.0423 17.0765 20.4127 18.4675 18.4868 19.5054C18.2222 19.6444 18.1164 19.5161 17.9683 19.3449C17.4392 18.7243 16.9101 18.1251 16.3069 17.4296C16 18.5317 15.7143 19.5161 15.4497 20.5111C15.3757 20.7893 15.2381 20.9605 14.9524 21.0568C12.3492 21.8807 9.74603 22.6938 7.01587 23.0041C6.59259 23.0469 6.5291 23.2074 6.8254 23.5391C7.29101 24.0741 7.83069 24.5449 8.4127 24.9514C10.8995 26.7169 13.6614 27.6477 16.6984 27.8082C17.291 27.8403 17.8942 27.8831 18.6032 27.9259C18.3492 28.1506 18.1693 28.2041 17.9788 28.2576C17.2169 28.4502 16.4444 28.4716 15.672 28.4716C14.8889 28.4609 14.9101 28.4716 14.8254 29.2741C14.5714 31.7029 14.328 34.1317 14.1481 36.5605C13.9259 39.7276 13.7143 42.8947 13.7884 46.0724C13.8095 46.8321 13.7884 47.6025 13.9577 48.3621C13.9788 48.4691 14 48.5975 14.1058 48.6296C14.2116 48.6617 14.2963 48.5547 14.3492 48.4584C14.4974 48.2123 14.6455 47.9663 14.7725 47.7202C16.455 44.307 18.2116 40.9366 20.1481 37.6626C23.3228 32.27 26.6349 26.9737 30.4444 22.0091C31.0265 21.2494 30.8995 20.9177 29.9683 20.6823C29.9153 20.6716 29.8624 20.6716 29.8095 20.6609C28.1799 20.3185 26.5185 20.3185 24.8571 20.3399C24.5714 20.3399 24.5079 20.5111 24.4233 20.7037C23.8201 22.0305 23.2169 23.3572 22.6032 24.6733C22.5185 24.8551 22.4762 25.0905 22.254 25.1975C22.2434 25.1333 22.2222 25.0798 22.2328 25.037C22.2751 24.8123 22.3175 24.577 22.3704 24.363C23.0794 21.7202 24.2011 19.2486 25.3333 16.777C25.7354 15.8996 25.7354 15.8996 25.1005 15.2148C25.0794 15.1934 25.0688 15.1506 25.0476 15.1185C25.0794 15.0864 25.1005 15.0543 25.1323 15.0222ZM32.455 13.8988C32.4762 14.316 32.6561 14.6263 32.8677 14.9045C33.037 15.1185 33.0053 15.2576 32.836 15.4502C32.4127 15.9317 32.0106 16.4881 31.4286 16.7235C30.6455 17.0444 30.455 17.6436 30.3915 18.3819C30.3704 18.6601 30.3492 18.9597 30.254 19.2272C30.0847 19.6979 30.2646 19.8691 30.709 20.0082C31.5344 20.265 31.7249 20.5646 31.6402 21.2601C31.5661 21.8593 31.2804 22.3728 30.9418 22.8543C30.4762 23.4856 30 24.0955 29.5238 24.716C29.3545 24.93 29.2593 25.1547 29.2063 25.4329C28.5926 29.0601 27.9683 32.6872 27.3545 36.3144C26.8466 39.2568 26.3492 42.1992 25.8413 45.1523C25.7778 45.5481 25.8413 45.7193 26.2963 45.7086C27.672 45.6765 29.0476 45.6765 30.4233 45.7086C30.8995 45.7193 31.037 45.5588 31.1111 45.1095C31.4921 42.7235 31.9153 40.3374 32.3175 37.9621C33.0053 33.9498 33.6931 29.9375 34.381 25.9251C34.6243 24.47 34.8571 23.0148 35.0899 21.549C35.1217 21.3136 35.1958 21.1959 35.4497 21.2173C35.746 21.2387 35.6614 21.442 35.6402 21.6025C35.4286 22.8329 35.2381 24.0634 35.1005 25.2938C34.7407 28.5465 34.3598 31.7992 33.9788 35.0519C33.5979 38.4329 33.2169 41.8033 32.8254 45.1844C32.7831 45.5802 32.8571 45.7086 33.2804 45.6979C35.0053 45.6765 36.7407 45.6872 38.4656 45.6872C39.3757 45.6872 39.3757 45.6872 39.5661 44.7992C41.2593 37.042 43.2593 29.349 44.7196 21.5383C44.7619 21.3136 44.8148 21.1852 45.0794 21.2066C45.418 21.2387 45.3016 21.4741 45.2698 21.6453C44.5926 25.6469 43.9153 29.6379 43.2275 33.6395C42.5608 37.5449 41.8942 41.4609 41.2063 45.3663C41.1534 45.6551 41.2487 45.6979 41.4921 45.6979C43.0265 45.6872 44.5608 45.6872 46.0952 45.6979C46.3492 45.6979 46.4127 45.5909 46.4444 45.3556C46.8889 42.6914 47.3545 40.0272 47.8095 37.363C48.4974 33.3185 49.1852 29.2634 49.873 25.2189C50.4868 21.6132 51.1005 17.9967 51.7249 14.3909C51.7884 14.0379 51.7355 13.9095 51.3333 13.9095C48.6349 13.9309 45.9365 13.9309 43.2381 13.9095C42.8254 13.9095 42.709 14.07 42.6349 14.4337C41.8095 18.2963 40.963 22.1481 40.1481 26.0107C39.5132 29.0173 38.7725 32.0025 38.2751 35.0412C38.0741 36.2502 37.873 37.4593 37.6614 38.6683C37.619 38.893 37.6402 39.214 37.2593 39.1498C36.8254 39.0856 37.0899 38.7967 37.1217 38.6255C37.4709 36.2181 37.9577 33.8214 38.2328 31.4033C38.5397 28.7177 38.9101 26.0321 39.2487 23.3572C39.6296 20.372 39.9894 17.3868 40.381 14.4123C40.4339 14.0165 40.3598 13.9202 39.9683 13.9202C38.1164 13.9416 36.2645 13.9309 34.4127 13.9309C33.7672 13.8988 33.1111 13.8988 32.455 13.8988ZM94.2328 39.7597C94.1587 41.5893 94.0847 43.4296 93.9894 45.2593C93.9683 45.6016 94.0847 45.6872 94.4021 45.6765C95.8095 45.6658 97.2275 45.6551 98.6349 45.6765C99.1005 45.6872 99.2593 45.5802 99.2593 45.0774C99.3122 40.9366 99.3968 36.8066 99.4603 32.6658C99.4603 32.4198 99.5026 32.2272 99.6825 32.0453C100.741 30.9646 101.397 29.6486 101.672 28.172C102.085 25.9572 102.444 23.721 102.836 21.4955C103.058 20.2115 103.28 18.9383 103.058 17.6222C102.688 15.5358 101.143 13.9951 99.1217 13.9202C96.7936 13.8453 94.4656 13.8881 92.1376 13.8774C91.8624 13.8774 91.7778 13.9844 91.746 14.2412C91.4815 15.8889 91.1852 17.5366 90.91 19.1844C90.1905 23.4428 89.4709 27.7012 88.7407 31.9704C87.9894 36.3893 87.2275 40.8082 86.4762 45.2165C86.4233 45.5161 86.455 45.6658 86.8254 45.6658C88.3069 45.6444 89.7884 45.6551 91.2698 45.6658C91.5556 45.6658 91.672 45.5695 91.7249 45.2914C92.1799 42.5416 92.6455 39.7811 93.1111 37.0313C93.2698 36.1004 93.4392 35.1802 93.5873 34.2494C93.6508 33.8214 93.9577 33.9712 94.1905 33.9498C94.4444 33.9284 94.455 34.0996 94.4444 34.3029C94.381 36.1325 94.3069 37.9407 94.2328 39.7597ZM111.63 13.3531C111.429 13.3638 111.111 13.3638 110.794 13.3959C110.529 13.428 110.275 13.4922 110.021 13.5564C107.164 14.3588 105.524 16.3704 104.688 19.1202C104.18 20.7893 104.021 22.5333 103.725 24.256C103.026 28.279 102.328 32.3128 101.661 36.3465C101.386 38.0049 100.974 39.6527 101.069 41.3646C101.196 43.7399 102.582 45.5374 104.772 46.051C105.735 46.2757 106.698 46.265 107.651 46.0403C110.487 45.3556 112.19 43.4403 113.111 40.744C113.714 38.9679 113.852 37.0955 114.18 35.2551C114.857 31.3819 115.513 27.5086 116.138 23.6354C116.413 21.9235 116.857 20.2222 116.836 18.4568C116.783 15.3539 114.815 13.3638 111.63 13.3531ZM49.1005 40.2091C49.0899 42.1885 49.3757 43.6008 50.4444 44.7243C51.9048 46.2543 53.746 46.479 55.6825 46.051C58.5291 45.4091 60.2222 43.4617 61.1534 40.7761C61.7037 39.2033 61.8307 37.5449 62.1058 35.9185C62.8148 31.842 63.5026 27.7547 64.1693 23.6675C64.4444 21.9877 64.8783 20.3292 64.8677 18.5959C64.8571 15.1292 62.5185 12.8181 58.6349 13.4601C55.7354 13.9416 53.9683 15.8461 52.9206 18.521C52.4444 19.7621 52.3069 21.0782 52.0847 22.3728C51.3122 26.8346 50.5397 31.307 49.7989 35.7794C49.5238 37.3951 49.1323 39.0107 49.1005 40.2091ZM66.4021 34.4527C65.6402 34.4527 64.8889 34.4634 64.127 34.4527C63.8519 34.4527 63.7249 34.5062 63.6931 34.8165C63.5979 35.5226 63.4497 36.2181 63.3333 36.9243C63.0899 38.5078 62.709 40.0593 62.8571 41.6856C63.0476 43.8897 64.4233 45.5802 66.5079 46.0617C67.6296 46.3185 68.7513 46.2757 69.8518 45.9226C72.6561 45.0346 74.254 42.9909 75.0053 40.2412C75.545 38.251 75.7989 36.1967 76.1058 34.1531C76.455 31.7885 75.7778 29.7449 74.1376 28.0436C73.4391 27.3161 72.6878 26.6313 71.9683 25.9358C71.1111 25.1012 70.709 24.1383 71.0053 22.8971C71.2275 21.9877 71.3333 21.0354 71.5344 20.1259C71.672 19.5054 72.1481 19.2272 72.6667 19.3342C73.1111 19.4305 73.2804 19.7728 73.164 20.4576C72.963 21.6132 72.7619 22.7687 72.5503 23.9243C72.4339 24.5877 72.4233 24.5877 73.0688 24.5877C74.3175 24.5877 75.5767 24.5877 76.8254 24.5877C77.6508 24.5877 77.6508 24.5877 77.8201 23.7424C77.8624 23.4963 77.9259 23.2502 77.9577 23.0041C78.2011 21.3885 78.6243 19.8049 78.5397 18.1358C78.4233 15.8782 77.1217 14.1021 75.0688 13.5457C73.9894 13.2568 72.8995 13.2675 71.8307 13.5564C69.3227 14.2305 67.7778 15.9531 66.8148 18.2963C66.1693 19.8584 66.0529 21.5383 65.746 23.186C65.5132 24.4165 65.3228 25.6469 65.4709 26.8988C65.7037 28.8247 66.7302 30.3012 68.0847 31.5959C68.6984 32.1844 69.3333 32.7621 69.9153 33.372C70.4656 33.9605 70.8148 34.656 70.6773 35.5012C70.5503 36.3144 70.4233 37.1169 70.2645 37.9193C70.1481 38.5078 70.1481 39.1284 69.8624 39.6741C69.6085 40.1449 69.0688 40.3909 68.6561 40.1984C68.1905 39.9844 68.1376 39.5885 68.2222 39.1177C68.4762 37.684 68.6984 36.2395 68.963 34.8058C69.0265 34.4848 68.91 34.442 68.6561 34.4527C67.8836 34.4634 67.1429 34.4527 66.4021 34.4527ZM85.4921 13.8988C83.9788 13.8988 82.455 13.8988 80.9418 13.8988C80.709 13.8988 80.4974 13.8667 80.4339 14.2091C80.1481 15.9852 79.8519 17.7506 79.545 19.5267C79.4921 19.8049 79.5661 19.8798 79.8201 19.8798C80.2645 19.8691 80.6984 19.8798 81.1429 19.8798C81.8942 19.8798 81.8836 19.8798 81.7566 20.6074C81.5555 21.7416 81.3651 22.8864 81.164 24.0206C80.4444 28.279 79.7249 32.5374 78.9947 36.7959C78.5185 39.5778 78.0529 42.3704 77.5661 45.1523C77.4921 45.5588 77.5767 45.7086 78.0212 45.6979C79.418 45.6658 80.8042 45.6658 82.2011 45.6979C82.6455 45.7086 82.7725 45.5374 82.8254 45.1416C83.0053 43.9432 83.2169 42.7556 83.418 41.5679C84.1058 37.5235 84.7936 33.4683 85.4815 29.4239C86 26.3745 86.5291 23.3251 87.037 20.2757C87.0899 19.9654 87.1852 19.8584 87.5026 19.8691C88.0106 19.8905 88.5291 19.8477 89.037 19.8798C89.3968 19.9012 89.5344 19.7621 89.5873 19.4198C89.8624 17.7399 90.1481 16.0494 90.4444 14.3695C90.5079 13.9951 90.4021 13.8881 90.0212 13.8881C88.5291 13.9095 87.0053 13.8988 85.4921 13.8988ZM5.94709 15.3539C6.13757 15.2362 6.27513 15.3325 6.42328 15.3753C6.95238 15.5144 7.48148 15.6535 8 15.7926C8.19048 15.8461 8.37037 15.8568 8.34921 15.5786C8.33862 15.386 8.58201 15.0971 8.20106 15.0115C6.50794 14.6691 4.87831 14.0914 3.26984 13.4815C3.18519 13.4494 3.06878 13.3531 2.99471 13.4922C2.93122 13.5992 3.01587 13.6955 3.06878 13.7918C3.40741 14.3695 3.73545 14.9687 4.16931 15.4823C5.14286 16.6058 6.74074 17.0979 7.93651 16.6379C8.04233 16.5951 8.22222 16.6058 8.2328 16.456C8.24339 16.2527 8.04233 16.2955 7.92593 16.2527C7.25926 15.9745 6.56085 15.7926 5.94709 15.3539Z" fill="#010201"/>
<path d="M32.455 13.8987C33.1111 13.8987 33.7672 13.8987 34.4127 13.8987C36.2645 13.8987 38.1164 13.9094 39.9682 13.888C40.3492 13.888 40.4233 13.9843 40.3809 14.3802C39.9894 17.3654 39.6296 20.3506 39.2487 23.3251C38.91 26.0107 38.5397 28.6856 38.2328 31.3712C37.9577 33.8 37.4709 36.186 37.1217 38.5934C37.1005 38.7753 36.836 39.0535 37.2592 39.1177C37.6402 39.1712 37.6296 38.8609 37.6614 38.6362C37.873 37.4271 38.0741 36.2181 38.2751 35.009C38.7725 31.9703 39.5238 28.9852 40.1481 25.9786C40.9629 22.116 41.8201 18.2642 42.6349 14.4016C42.709 14.0271 42.8254 13.8666 43.2381 13.8773C45.9365 13.8987 48.6349 13.8987 51.3333 13.8773C51.7354 13.8773 51.7883 14.0057 51.7249 14.3588C51.1005 17.9646 50.4868 21.581 49.873 25.1868C49.1852 29.2312 48.4973 33.2864 47.8095 37.3308C47.3545 39.995 46.8995 42.6592 46.4444 45.3234C46.4021 45.5588 46.3492 45.6658 46.0952 45.6658C44.5608 45.6551 43.0264 45.6551 41.4921 45.6658C41.2487 45.6658 41.1534 45.623 41.2063 45.3341C41.8836 41.4288 42.5608 37.5234 43.2275 33.6074C43.9153 29.6164 44.5926 25.6148 45.2698 21.6131C45.3016 21.4526 45.418 21.2065 45.0794 21.1745C44.8148 21.1531 44.7725 21.2814 44.7196 21.5061C43.2592 29.3168 41.2592 37.0098 39.5661 44.767C39.3756 45.6551 39.3756 45.6551 38.4656 45.6551C36.7407 45.6551 35.0053 45.6444 33.2804 45.6658C32.8571 45.6765 32.7831 45.5481 32.8254 45.1522C33.2169 41.7712 33.5979 38.4008 33.9788 35.0197C34.3492 31.767 34.7407 28.5144 35.1005 25.2617C35.2381 24.0205 35.4286 22.7901 35.6402 21.5703C35.6719 21.4098 35.7566 21.2066 35.4497 21.1852C35.1958 21.1638 35.1217 21.2814 35.0899 21.5168C34.8677 22.972 34.6349 24.4378 34.3809 25.893C33.7037 29.9053 33.0053 33.9177 32.3174 37.93C31.9047 40.316 31.492 42.6913 31.1111 45.0773C31.037 45.5374 30.8995 45.6979 30.4233 45.6765C29.0476 45.6444 27.6719 45.6444 26.2963 45.6765C25.8413 45.6872 25.7778 45.516 25.8413 45.1201C26.3492 42.1777 26.8465 39.2354 27.3545 36.2823C27.9788 32.6551 28.6032 29.0279 29.2063 25.4008C29.2487 25.1226 29.3545 24.8979 29.5238 24.6839C30 24.0633 30.4868 23.4535 30.9418 22.8222C31.291 22.3514 31.5767 21.8271 31.6402 21.2279C31.7249 20.5325 31.5238 20.2329 30.709 19.9761C30.2645 19.837 30.0952 19.6658 30.254 19.195C30.3492 18.9275 30.3598 18.6386 30.3915 18.3498C30.455 17.6115 30.6455 17.023 31.4286 16.6913C32.0106 16.4452 32.4127 15.8996 32.836 15.4181C33.0053 15.2255 33.037 15.0864 32.8677 14.8724C32.6561 14.6263 32.4762 14.316 32.455 13.8987Z" fill="#8BC33F"/>
<path d="M25.0582 15.1078C25.0793 15.1399 25.0793 15.172 25.1111 15.2041C25.7566 15.8889 25.746 15.8782 25.3439 16.7662C24.2222 19.2378 23.1005 21.7201 22.3809 24.3522C22.3174 24.5769 22.2857 24.8016 22.2434 25.0263C22.2328 25.0691 22.2539 25.1226 22.2645 25.1868C22.4868 25.0798 22.5291 24.8444 22.6137 24.6625C23.2275 23.3465 23.8307 22.0197 24.4338 20.693C24.5185 20.5004 24.5926 20.3292 24.8677 20.3292C26.5291 20.3078 28.1799 20.3078 29.8201 20.6502C29.873 20.6609 29.9259 20.6609 29.9788 20.6716C30.8995 20.907 31.037 21.2387 30.455 21.9983C26.6455 26.9629 23.3333 32.2592 20.1587 37.6518C18.2328 40.9259 16.4762 44.2963 14.783 47.7094C14.6561 47.9662 14.5079 48.2123 14.3598 48.4477C14.3069 48.544 14.2222 48.6403 14.1164 48.6189C14.0106 48.5868 13.9894 48.4691 13.9682 48.3514C13.8095 47.5917 13.8201 46.8214 13.7989 46.0617C13.7248 42.8839 13.9259 39.7168 14.1587 36.5498C14.328 34.1103 14.582 31.6922 14.836 29.2633C14.9206 28.4609 14.91 28.4609 15.6825 28.4609C16.455 28.4716 17.2275 28.4395 17.9894 28.2469C18.1799 28.2041 18.3492 28.1506 18.6137 27.9152C17.8942 27.8724 17.3016 27.8296 16.709 27.7975C13.6825 27.6477 10.91 26.7168 8.42326 24.9407C7.84125 24.5341 7.31215 24.0633 6.83596 23.5284C6.53966 23.1967 6.60316 23.0362 7.02644 22.9934C9.7566 22.6831 12.3598 21.8699 14.9629 21.0461C15.2487 20.9498 15.3862 20.7893 15.4603 20.5004C15.7248 19.5053 16.0106 18.521 16.3174 17.4189C16.9206 18.1144 17.4497 18.7136 17.9788 19.3341C18.127 19.5053 18.2328 19.6337 18.4973 19.4946C20.4338 18.4568 22.0529 17.0658 23.3439 15.279C23.4391 15.1399 23.5555 15.0008 23.5661 14.7226C23.2381 15.0329 22.9524 15.3004 22.6666 15.5679C21.4497 16.7234 20.1164 17.6971 18.6772 18.5531C18.328 18.7563 18.1375 18.7029 17.9047 18.4033C17.5132 17.9004 17.0793 17.4189 16.6455 16.9588C16.0529 16.3168 16.0106 16.3382 15.7566 17.1514C15.4815 18.0288 15.1852 18.9061 14.9312 19.7942C14.836 20.1152 14.6878 20.2971 14.3598 20.4041C12.6772 20.9391 10.9947 21.4419 9.25924 21.7736C8.64548 21.8913 8.6349 21.8913 8.67723 21.2601C8.89945 17.9325 9.30157 14.637 9.80951 11.3415C9.9894 10.1646 10.1905 8.98763 10.3809 7.81067C10.5608 6.67651 11.1428 5.88475 12.2222 5.39256C15.5026 3.90532 18.9418 3.14565 22.5291 3.23125C24.8677 3.30614 27.1957 3.57363 29.418 4.3975C29.545 4.451 29.6825 4.5045 29.8095 4.558C30.8889 5.01808 30.9947 5.32837 30.455 6.38763C29.5238 8.22796 28.5502 10.0469 27.6931 11.9193C27.3439 12.6897 26.7831 12.9251 26.0635 13.0321C25.8413 13.0642 25.619 13.0749 25.3862 13.2247C25.8518 13.5777 26.3386 13.5136 26.8254 13.4494C27.6931 13.3317 28.4762 12.9786 29.2592 12.5827C30.836 11.7909 32.4127 10.9991 33.9259 10.079C34.0741 9.99339 34.2328 9.91849 34.3809 9.85429C34.5079 9.92919 34.4868 10.0255 34.455 10.1004C34.1693 10.8601 33.8624 11.6197 33.5873 12.3901C33.492 12.6576 33.3862 12.7325 33.1323 12.6148C33.0264 12.5613 32.8995 12.5399 32.7725 12.5185C32.1164 12.4115 31.7883 12.7111 31.8518 13.3745C31.8942 13.7703 31.9788 14.1555 32.1693 14.4979C32.3174 14.7654 32.254 14.9366 32.0635 15.1506C30.8571 16.488 29.492 16.8625 27.8201 16.2312C27.2804 16.028 26.7619 15.7498 26.2434 15.493C25.8836 15.3111 25.5238 15.1078 25.1323 15.0115C25.0899 15.0115 25.0476 15.0008 25.0053 15.0008C25.0159 15.0436 25.037 15.0757 25.0582 15.1078ZM14.9312 10.7424C14.9312 10.1539 14.91 9.5547 14.7619 8.98763C14.4656 7.76787 13.5979 7.47898 12.6455 8.29215C11.9894 8.84853 11.5026 9.5547 11.1111 10.3144C10.2434 12.0156 9.80951 13.8452 9.64019 15.7391C9.54496 16.7555 9.67194 17.7827 10.1693 18.7029C10.7196 19.73 11.6931 19.8584 12.5397 19.0666C12.9206 18.7029 13.1852 18.2642 13.3968 17.7934C14.3809 15.5465 14.8148 13.1712 14.9312 10.7424ZM23.0582 9.06252C20.5079 11.4806 17.8942 13.6205 14.9312 15.3004C15.873 15.6107 16.783 15.8033 17.7143 15.9103C18.2751 15.9745 18.836 15.9638 19.4074 15.9424C20.9947 15.8675 22.0635 14.9366 22.3809 13.3531C22.5397 12.5827 22.5079 11.7909 22.455 11.0098C22.4338 10.6568 22.4868 10.3679 22.7196 10.079C22.8889 9.84359 23.0899 9.5761 23.0582 9.06252ZM25.2804 14.316C26.3598 15.3004 29.2063 15.1399 30.4868 14.0913C28.7619 14.1983 27.0899 14.4979 25.2804 14.316Z" fill="#8BC33F"/>
<path d="M94.2328 39.7597C94.3069 37.9407 94.381 36.1218 94.455 34.3136C94.4656 34.1103 94.455 33.9391 94.2011 33.9605C93.9683 33.9819 93.6614 33.8321 93.5979 34.2601C93.4497 35.1909 93.2804 36.1218 93.1217 37.042C92.6561 39.7918 92.1905 42.5522 91.7355 45.302C91.6931 45.5802 91.5661 45.6765 91.2804 45.6765C89.7989 45.6658 88.3175 45.6551 86.836 45.6765C86.4656 45.6765 86.4339 45.5374 86.4868 45.2271C87.2487 40.8082 88 36.3893 88.7513 31.9811C89.4815 27.7226 90.1905 23.4642 90.9206 19.195C91.1958 17.5473 91.4921 15.8996 91.7566 14.2518C91.7989 13.995 91.8836 13.8774 92.1482 13.8881C94.4762 13.8988 96.8042 13.856 99.1323 13.9308C101.153 13.995 102.698 15.5465 103.069 17.6329C103.302 18.949 103.069 20.2222 102.847 21.5062C102.455 23.7317 102.095 25.9572 101.683 28.1827C101.407 29.6699 100.741 30.9753 99.6931 32.056C99.5132 32.2378 99.4709 32.4411 99.4709 32.6765C99.3968 36.8173 99.3122 40.9473 99.2698 45.088C99.2593 45.6016 99.1111 45.6979 98.6455 45.6872C97.2381 45.6551 95.8201 45.6658 94.4127 45.6872C94.0953 45.6872 93.9788 45.6016 94 45.2699C94.0847 43.4296 94.1587 41.6 94.2328 39.7597ZM92.381 28.2255C92.3915 28.279 92.4021 28.3325 92.4127 28.3967C93.3757 28.3967 94.3386 28.3967 95.291 28.3967C96.1058 28.3967 96.4762 28.0864 96.6243 27.2625C96.8783 25.8395 97.1217 24.4271 97.3545 23.0041C97.4815 22.2551 97.6191 21.4955 97.6931 20.7358C97.7566 20.1259 97.4921 19.8905 96.8995 19.8691C96.7408 19.8584 96.582 19.8798 96.4233 19.8691C96.1058 19.837 96.0106 19.9761 95.9577 20.2864C95.6191 22.4156 95.2487 24.5341 94.8995 26.6527C94.8466 26.9736 94.7196 27.1769 94.3915 27.316C93.7143 27.5835 93.0476 27.9152 92.381 28.2255Z" fill="#8BC33F"/>
<path d="M111.63 13.353C114.815 13.3637 116.794 15.3539 116.825 18.4674C116.847 20.2329 116.402 21.9234 116.127 23.646C115.503 27.53 114.847 31.4032 114.169 35.2658C113.852 37.1061 113.714 38.9785 113.101 40.7547C112.18 43.451 110.476 45.3662 107.64 46.051C106.688 46.2864 105.714 46.2864 104.762 46.0617C102.582 45.5481 101.185 43.7506 101.058 41.3753C100.974 39.6633 101.376 38.0156 101.651 36.3571C102.317 32.3234 103.016 28.2897 103.714 24.2666C104.011 22.5547 104.169 20.7999 104.677 19.1308C105.513 16.381 107.153 14.3588 110.011 13.567C110.265 13.4921 110.518 13.4386 110.783 13.4065C111.101 13.3637 111.418 13.3637 111.63 13.353ZM111.471 20.2115C111.492 19.8584 111.397 19.5481 111.069 19.3983C110.72 19.2378 110.381 19.302 110.074 19.5481C109.82 19.7621 109.672 20.0403 109.608 20.3613C109.534 20.7464 109.471 21.1316 109.397 21.5168C108.603 26.1711 107.809 30.8362 107.016 35.5012C106.804 36.7423 106.593 37.9942 106.402 39.2353C106.339 39.6526 106.413 40.0485 106.847 40.209C107.27 40.3588 107.651 40.2197 107.926 39.8666C108.095 39.6526 108.201 39.4172 108.254 39.1497C108.392 38.3473 108.529 37.5341 108.667 36.7316C109.354 32.6444 110.042 28.5678 110.741 24.4806C110.995 23.0469 111.238 21.6345 111.471 20.2115Z" fill="#8BC33F"/>
<path d="M49.1005 40.2091C49.1323 39.0107 49.5344 37.4058 49.7989 35.7687C50.5397 31.2963 51.3122 26.8239 52.0847 22.3621C52.3069 21.0675 52.4444 19.7514 52.9206 18.5103C53.9577 15.8247 55.7249 13.9309 58.6349 13.4494C62.5185 12.8074 64.8571 15.1185 64.8677 18.5852C64.8783 20.3078 64.4444 21.9663 64.1693 23.6568C63.5026 27.744 62.8148 31.8313 62.1058 35.9078C61.8201 37.5342 61.6931 39.2033 61.1534 40.7654C60.2222 43.451 58.5291 45.3984 55.6825 46.0403C53.7566 46.4683 51.9048 46.2543 50.4444 44.7136C49.3757 43.6008 49.0794 42.1778 49.1005 40.2091ZM59.5132 20.1901C59.5132 19.837 59.4392 19.5268 59.1005 19.3877C58.709 19.2165 58.3386 19.3235 58.0317 19.623C57.6931 19.9547 57.6402 20.4041 57.5661 20.8428C56.6138 26.3959 55.672 31.949 54.7196 37.5021C54.6138 38.1012 54.5185 38.6897 54.4444 39.2996C54.4021 39.6634 54.4656 40.0379 54.8677 40.1877C55.2698 40.3482 55.6296 40.2412 55.9259 39.9202C56.1376 39.6955 56.254 39.4173 56.3069 39.1177C56.4444 38.3473 56.582 37.577 56.709 36.8066C57.4392 32.4947 58.1587 28.1827 58.8889 23.8708C59.1111 22.651 59.3122 21.4206 59.5132 20.1901Z" fill="#8BC33F"/>
<path d="M66.4021 34.4526C67.1429 34.4526 67.8836 34.4633 68.6244 34.4526C68.8889 34.4526 68.9947 34.4847 68.9312 34.8057C68.6667 36.2394 68.4445 37.6839 68.1905 39.1176C68.1058 39.5884 68.1587 39.9843 68.6244 40.1983C69.0371 40.3909 69.5767 40.1448 69.8307 39.674C70.127 39.1283 70.1164 38.5078 70.2328 37.9193C70.4021 37.1168 70.5185 36.3036 70.6455 35.5012C70.7831 34.6559 70.4339 33.9604 69.8836 33.372C69.3016 32.7514 68.6773 32.1736 68.0529 31.5958C66.6984 30.3119 65.672 28.8246 65.4392 26.8987C65.2804 25.6469 65.4709 24.4164 65.7143 23.1859C66.0318 21.5489 66.1482 19.8584 66.7831 18.2962C67.746 15.953 69.291 14.2304 71.799 13.5563C72.8677 13.2674 73.9683 13.2567 75.037 13.5456C77.09 14.102 78.3916 15.8781 78.508 18.1357C78.5926 19.7942 78.1693 21.3884 77.9259 23.0041C77.8836 23.2501 77.8307 23.4962 77.7884 23.7423C77.6296 24.5876 77.6296 24.5876 76.7937 24.5876C75.545 24.5876 74.2857 24.5876 73.0371 24.5876C72.3915 24.5876 72.4021 24.5876 72.5185 23.9242C72.7302 22.7687 72.9418 21.6131 73.1323 20.4576C73.2487 19.7835 73.0794 19.4304 72.6349 19.3341C72.1164 19.2164 71.6508 19.5053 71.5027 20.1259C71.291 21.046 71.1958 21.9876 70.9736 22.8971C70.6667 24.1275 71.0688 25.1012 71.9365 25.9357C72.6667 26.6419 73.4074 27.316 74.1058 28.0436C75.7355 29.7555 76.4233 31.7991 76.0741 34.153C75.7778 36.1966 75.5238 38.251 74.9736 40.2411C74.2222 42.9909 72.6244 45.0452 69.8201 45.9226C68.7196 46.265 67.5979 46.3185 66.4762 46.0617C64.3915 45.5802 63.0265 43.8897 62.8254 41.6855C62.6773 40.0592 63.0582 38.4971 63.3016 36.9242C63.4074 36.218 63.5661 35.5226 63.6614 34.8164C63.7037 34.5061 63.8307 34.4419 64.0953 34.4526C64.8889 34.4633 65.6508 34.4526 66.4021 34.4526Z" fill="#8BC33F"/>
<path d="M85.4921 13.8988C87.0053 13.8988 88.5291 13.9095 90.0423 13.8881C90.4233 13.8774 90.5291 13.9951 90.4656 14.3696C90.1693 16.0494 89.8836 17.7293 89.6085 19.4198C89.5555 19.7622 89.4074 19.9013 89.0582 19.8799C88.5502 19.8478 88.0317 19.8906 87.5238 19.8692C87.2169 19.8585 87.1111 19.9548 87.0582 20.2758C86.5503 23.3251 86.0212 26.3745 85.5026 29.4239C84.8148 33.4684 84.127 37.5235 83.4391 41.5679C83.2381 42.7556 83.0264 43.954 82.8465 45.1416C82.7831 45.5268 82.6667 45.7087 82.2222 45.698C80.8254 45.6659 79.4391 45.6659 78.0423 45.698C77.5979 45.7087 77.5132 45.5589 77.5873 45.1523C78.0741 42.3704 78.5503 39.5778 79.0159 36.7959C79.7354 32.5375 80.4656 28.2791 81.1852 24.0206C81.3756 22.8865 81.5661 21.7416 81.7778 20.6075C81.9047 19.8799 81.9153 19.8799 81.164 19.8799C80.7196 19.8799 80.2857 19.8692 79.8413 19.8799C79.5873 19.8799 79.5132 19.805 79.5661 19.5268C79.873 17.7614 80.1693 15.9852 80.455 14.2091C80.5079 13.8667 80.7301 13.8988 80.9629 13.8988C82.4656 13.8988 83.9788 13.8988 85.4921 13.8988Z" fill="#8BC33F"/>
<path d="M5.94708 15.3539C6.56084 15.7926 7.25925 15.9744 7.92592 16.2419C8.04232 16.2847 8.25396 16.2419 8.2328 16.4452C8.22222 16.595 8.04232 16.5843 7.9365 16.6271C6.74074 17.0872 5.15343 16.595 4.16931 15.4716C3.72486 14.958 3.4074 14.3588 3.06878 13.781C3.01587 13.6954 2.94179 13.5884 2.9947 13.4814C3.06878 13.353 3.18518 13.4386 3.26984 13.4707C4.8783 14.0806 6.50793 14.6691 8.20105 15.0008C8.59259 15.0757 8.33862 15.3646 8.3492 15.5679C8.37037 15.8461 8.19047 15.8354 7.99999 15.7819C7.47089 15.6428 6.94179 15.5037 6.42328 15.3646C6.27513 15.3325 6.13756 15.2362 5.94708 15.3539Z" fill="#8BC33F"/>
<path d="M14.9312 10.7424C14.8148 13.1819 14.3809 15.5465 13.3968 17.7827C13.1852 18.2535 12.9206 18.7029 12.5397 19.0559C11.6931 19.8477 10.7195 19.7086 10.1693 18.6922C9.67193 17.772 9.55553 16.7555 9.64018 15.7284C9.8095 13.8345 10.2328 12.0049 11.1111 10.3037C11.5026 9.53331 11.9894 8.83783 12.6455 8.28146C13.5979 7.47899 14.4656 7.75718 14.7619 8.97693C14.91 9.55471 14.9312 10.1432 14.9312 10.7424ZM14.328 10.4642C14.328 10.2823 14.3492 10.1004 14.328 9.92919C14.2539 9.43701 14.4127 8.79504 13.8095 8.58104C13.2063 8.36705 12.8465 8.90203 12.5185 9.30862C10.8677 11.4164 10.3703 13.8559 10.5079 16.4773C10.5185 16.7769 10.6243 17.0658 10.7725 17.3333C11.1217 17.9753 11.6613 18.0716 12.1904 17.558C12.4338 17.3226 12.6031 17.0337 12.7513 16.7234C13.6931 14.7547 14.1587 12.6469 14.328 10.4642Z" fill="#010201"/>
<path d="M23.0582 9.0625C23.09 9.57608 22.8889 9.84357 22.709 10.079C22.4868 10.3678 22.4233 10.6567 22.4445 11.0098C22.4974 11.7909 22.5291 12.572 22.3704 13.353C22.0529 14.9259 20.9841 15.8674 19.3968 15.9423C18.836 15.9637 18.2646 15.9851 17.7037 15.9102C16.7831 15.7925 15.8625 15.6106 14.9207 15.3004C17.8942 13.6312 20.508 11.4806 23.0582 9.0625ZM21.4815 11.4057C19.8519 12.7539 18.1905 13.9415 16.4339 15.065C17.3439 15.3218 19.2699 15.279 20.0106 15.0222C20.5397 14.8296 21.0053 14.5407 21.2275 13.995C21.5556 13.1818 21.5662 12.3366 21.4815 11.4057Z" fill="#010201"/>
<path d="M25.2804 14.316C27.1005 14.4979 28.7619 14.1983 30.4867 14.0913C29.2063 15.1399 26.3492 15.3111 25.2804 14.316Z" fill="#010201"/>
<path d="M25.0582 15.1079C25.0371 15.0758 25.0265 15.0437 25.0053 15.0009C25.0476 15.0009 25.09 15.0116 25.1323 15.0116C25.1005 15.0544 25.0794 15.0865 25.0582 15.1079Z" fill="#010201"/>
<path d="M92.381 28.2255C93.0476 27.9152 93.7037 27.5835 94.3916 27.3053C94.7196 27.1769 94.8466 26.9629 94.8995 26.6419C95.2487 24.5234 95.6191 22.4049 95.9577 20.2757C96.0106 19.9654 96.1059 19.8263 96.4233 19.8584C96.582 19.8798 96.7408 19.8584 96.8995 19.8584C97.5027 19.8798 97.7566 20.1152 97.6932 20.7251C97.6191 21.4847 97.4815 22.2337 97.3545 22.9934C97.1217 24.4164 96.8783 25.8395 96.6244 27.2518C96.4762 28.0757 96.1058 28.386 95.291 28.386C94.3281 28.386 93.3651 28.386 92.4127 28.386C92.4021 28.3325 92.3916 28.279 92.381 28.2255Z" fill="#010201"/>
<path d="M111.471 20.2115C111.228 21.6345 110.995 23.0469 110.751 24.4699C110.064 28.5571 109.376 32.6337 108.677 36.7209C108.54 37.5234 108.402 38.3366 108.265 39.139C108.222 39.4065 108.106 39.6526 107.937 39.8559C107.651 40.209 107.27 40.3481 106.857 40.1983C106.413 40.0378 106.339 39.6419 106.413 39.2246C106.614 37.9835 106.815 36.7316 107.026 35.4905C107.82 30.8255 108.614 26.1711 109.407 21.5061C109.471 21.1209 109.545 20.7357 109.619 20.3506C109.683 20.0296 109.82 19.7407 110.085 19.5374C110.381 19.2913 110.73 19.2271 111.079 19.3876C111.397 19.5481 111.492 19.8584 111.471 20.2115Z" fill="#010201"/>
<path d="M59.5132 20.1901C59.3122 21.4205 59.1005 22.6403 58.8995 23.8707C58.1693 28.1827 57.4497 32.4946 56.7196 36.8066C56.5926 37.5769 56.4444 38.3473 56.3174 39.1177C56.2645 39.4279 56.1481 39.6954 55.9365 39.9201C55.6402 40.2304 55.2804 40.3374 54.8783 40.1876C54.4868 40.0271 54.4127 39.6633 54.455 39.2996C54.5185 38.7004 54.6243 38.1012 54.7301 37.502C55.6719 31.9489 56.6243 26.3959 57.5767 20.8428C57.6508 20.4041 57.7037 19.9547 58.0423 19.623C58.3492 19.3234 58.7196 19.2271 59.1111 19.3876C59.4391 19.5267 59.5238 19.8477 59.5132 20.1901Z" fill="#010201"/>
<path d="M14.328 10.4641C14.1482 12.6469 13.6931 14.7547 12.7513 16.7341C12.6032 17.0444 12.4339 17.3333 12.1905 17.5687C11.6508 18.0716 11.1217 17.986 10.7725 17.344C10.6243 17.0765 10.5291 16.7876 10.5079 16.488C10.3704 13.8666 10.8677 11.4271 12.5185 9.31929C12.8466 8.902 13.2064 8.37772 13.8095 8.59172C14.4021 8.79501 14.254 9.44768 14.328 9.93986C14.3492 10.1111 14.328 10.293 14.328 10.4641ZM13.8519 10.5283C13.8519 10.4427 13.8624 10.3464 13.8519 10.2609C13.8307 10.0683 13.8519 9.83287 13.6402 9.75797C13.3968 9.67237 13.2593 9.89707 13.1534 10.0683C12.8042 10.646 12.6561 11.2773 12.709 11.9407C12.7302 12.1761 12.7831 12.4436 13.0476 12.4864C13.3228 12.5292 13.4286 12.2724 13.5238 12.0691C13.7566 11.5876 13.8307 11.0633 13.8519 10.5283Z" fill="#F0C925"/>
<path d="M21.4815 11.4058C21.5661 12.3366 21.5555 13.1819 21.2275 13.9951C21.0053 14.5514 20.5397 14.8296 20.0106 15.0222C19.2698 15.2897 17.3439 15.3218 16.4338 15.065C18.1905 13.9416 19.8412 12.7539 21.4815 11.4058ZM21.2487 12.8181C21.2381 12.5827 21.2381 12.3794 21.0899 12.2296C21.0264 12.1654 20.9312 12.2189 20.8571 12.2724C20.5608 12.4864 20.2328 13.4494 20.3598 13.7918C20.4867 14.1235 20.6984 14.1449 20.91 13.8881C21.1746 13.5671 21.2063 13.1712 21.2487 12.8181Z" fill="#F0C925"/>
<path d="M13.8518 10.5283C13.8413 11.0633 13.7672 11.5876 13.5344 12.0691C13.4391 12.2724 13.3333 12.5399 13.0582 12.4864C12.7936 12.4436 12.7407 12.1761 12.7196 11.9407C12.6561 11.2666 12.8148 10.6353 13.164 10.0683C13.2698 9.88637 13.3968 9.67237 13.6508 9.75797C13.8624 9.83287 13.8413 10.0683 13.8624 10.2609C13.8518 10.3571 13.8518 10.4427 13.8518 10.5283Z" fill="#FEFEFE"/>
<path d="M21.2487 12.8181C21.2063 13.1712 21.1746 13.5671 20.9206 13.8773C20.709 14.1341 20.4973 14.1127 20.3704 13.7811C20.2434 13.4494 20.5714 12.4757 20.8677 12.2617C20.9418 12.2082 21.037 12.1547 21.1005 12.2189C21.2381 12.3794 21.2381 12.5827 21.2487 12.8181Z" fill="#FEFEFE"/>
</g>
<defs>
<clipPath id="clip0_822_553">
<rect width="120" height="52" fill="white"/>
</clipPath>
</defs>
</svg>
